solid OpenSCAD_Model
  facet normal -1 0 0
    outer loop
      vertex -10.605 7.6 0
      vertex -10.605 7.6 -22.75
      vertex -10.605 0 0
    endloop
  endfacet
  facet normal -1 0 0
    outer loop
      vertex -10.605 0 0
      vertex -10.605 7.6 -22.75
      vertex -10.605 0 -22.75
    endloop
  endfacet
  facet normal 0 -1 0
    outer loop
      vertex -10.605 0 0
      vertex -10.605 0 -22.75
      vertex -5.85 0 -22.75
    endloop
  endfacet
  facet normal 0 -1 0
    outer loop
      vertex -5.3 0 -15.1667
      vertex -10.605 0 0
      vertex -5.85 0 -15.1667
    endloop
  endfacet
  facet normal 0 -1 0
    outer loop
      vertex -5.85 0 -15.1667
      vertex -10.605 0 0
      vertex -5.85 0 -22.75
    endloop
  endfacet
  facet normal 0 -1 0
    outer loop
      vertex 5.66176 0 -26.9216
      vertex -10.605 0 0
      vertex -5.3 0 -15.1667
    endloop
  endfacet
  facet normal 0 -1 0
    outer loop
      vertex 5.66176 0 -26.9216
      vertex -5.3 0 -15.1667
      vertex -5.3 0 -22.75
    endloop
  endfacet
  facet normal 0 -1 0
    outer loop
      vertex 5.66176 0 -26.9216
      vertex -5.3 0 -22.75
      vertex -5.3 0 -24.75
    endloop
  endfacet
  facet normal 0 -1 0
    outer loop
      vertex -5.8 0 -24.75
      vertex -5.8 0 -27.75
      vertex -5.7209 0 -27.1001
    endloop
  endfacet
  facet normal 0 -1 0
    outer loop
      vertex -5.8 0 -24.75
      vertex -5.7209 0 -26.9216
      vertex -5.3 0 -24.75
    endloop
  endfacet
  facet normal 0 -1 0
    outer loop
      vertex -5.8 0 -24.75
      vertex -5.7209 0 -27.1001
      vertex -5.7209 0 -26.9216
    endloop
  endfacet
  facet normal 0 -1 0
    outer loop
      vertex 5.3 0 -22.75
      vertex 5.3 0 -15.1667
      vertex -10.605 0 0
    endloop
  endfacet
  facet normal -0 -1 0
    outer loop
      vertex 5.56401 0 -27.75
      vertex 5.8 0 -27.75
      vertex 5.66176 0 -26.9216
    endloop
  endfacet
  facet normal 0 -1 0
    outer loop
      vertex 5.8 0 -27.75
      vertex 5.8 0 -24.75
      vertex 5.66176 0 -26.9216
    endloop
  endfacet
  facet normal -0 -1 -0
    outer loop
      vertex 5.85 0 -22.75
      vertex 10.605 0 -22.75
      vertex 5.85 0 -15.1667
    endloop
  endfacet
  facet normal 0 -1 0
    outer loop
      vertex 5.66176 0 -26.9216
      vertex 5.3 0 -24.75
      vertex -10.605 0 0
    endloop
  endfacet
  facet normal 0 -1 -0
    outer loop
      vertex 5.66176 0 -26.9216
      vertex 5.8 0 -24.75
      vertex 5.3 0 -24.75
    endloop
  endfacet
  facet normal -0 -1 -0
    outer loop
      vertex 5.3 0 -15.1667
      vertex 5.85 0 -15.1667
      vertex -10.605 0 0
    endloop
  endfacet
  facet normal 0 -1 -0
    outer loop
      vertex 5.85 0 -15.1667
      vertex 10.605 0 0
      vertex -10.605 0 0
    endloop
  endfacet
  facet normal 0 -1 0
    outer loop
      vertex 10.605 0 -22.75
      vertex 10.605 0 0
      vertex 5.85 0 -15.1667
    endloop
  endfacet
  facet normal 0 -1 0
    outer loop
      vertex 5.3 0 -24.75
      vertex 5.3 0 -22.75
      vertex -10.605 0 0
    endloop
  endfacet
  facet normal 0 -1 0
    outer loop
      vertex -5.56313 0 -27.75
      vertex -5.7209 0 -27.1001
      vertex -5.8 0 -27.75
    endloop
  endfacet
  facet normal -0 -1 0
    outer loop
      vertex -5.7209 0 -26.9216
      vertex 5.66176 0 -26.9216
      vertex -5.3 0 -24.75
    endloop
  endfacet
  facet normal 0 0 -1
    outer loop
      vertex -5.85 2 -22.75
      vertex -5.85 0 -22.75
      vertex -8.605 2 -22.75
    endloop
  endfacet
  facet normal 0 0 -1
    outer loop
      vertex -6.605 5.6 -22.75
      vertex -10.605 7.6 -22.75
      vertex -6.605 7.6 -22.75
    endloop
  endfacet
  facet normal -0 -0 -1
    outer loop
      vertex -8.605 5.6 -22.75
      vertex -10.605 7.6 -22.75
      vertex -6.605 5.6 -22.75
    endloop
  endfacet
  facet normal 0 -0 -1
    outer loop
      vertex -10.605 0 -22.75
      vertex -10.605 7.6 -22.75
      vertex -8.605 2 -22.75
    endloop
  endfacet
  facet normal -0 0 -1
    outer loop
      vertex -10.605 0 -22.75
      vertex -8.605 2 -22.75
      vertex -5.85 0 -22.75
    endloop
  endfacet
  facet normal 0 0 -1
    outer loop
      vertex -8.605 2 -22.75
      vertex -10.605 7.6 -22.75
      vertex -8.605 5.6 -22.75
    endloop
  endfacet
  facet normal 0 -0 1
    outer loop
      vertex -8.605 2 0
      vertex -10.605 0 0
      vertex 10.605 0 0
    endloop
  endfacet
  facet normal 0 -0 1
    outer loop
      vertex 8.605 5.6 0
      vertex 8.605 2 0
      vertex 10.605 0 0
    endloop
  endfacet
  facet normal 0 0 1
    outer loop
      vertex 10.605 7.6 0
      vertex 8.605 5.6 0
      vertex 10.605 0 0
    endloop
  endfacet
  facet normal 0 0 1
    outer loop
      vertex 10.605 7.6 0
      vertex 6.605 7.6 0
      vertex 8.605 5.6 0
    endloop
  endfacet
  facet normal 0 -0 1
    outer loop
      vertex -10.605 7.6 0
      vertex -10.605 0 0
      vertex -8.605 2 0
    endloop
  endfacet
  facet normal 0 0 1
    outer loop
      vertex -10.605 7.6 0
      vertex -8.605 2 0
      vertex -8.605 5.6 0
    endloop
  endfacet
  facet normal 0 0 1
    outer loop
      vertex -6.605 5.6 0
      vertex -6.605 7.6 0
      vertex -10.605 7.6 0
    endloop
  endfacet
  facet normal 0 0 1
    outer loop
      vertex -10.605 7.6 0
      vertex -8.605 5.6 0
      vertex -6.605 5.6 0
    endloop
  endfacet
  facet normal 0 0 1
    outer loop
      vertex 6.605 5.6 0
      vertex 8.605 5.6 0
      vertex 6.605 7.6 0
    endloop
  endfacet
  facet normal 0 -0 1
    outer loop
      vertex 8.605 2 0
      vertex -8.605 2 0
      vertex 10.605 0 0
    endloop
  endfacet
  facet normal 0 1 0
    outer loop
      vertex -6.605 7.6 0
      vertex -6.605 7.6 -22.75
      vertex -10.605 7.6 0
    endloop
  endfacet
  facet normal 0 1 -0
    outer loop
      vertex -10.605 7.6 0
      vertex -6.605 7.6 -22.75
      vertex -10.605 7.6 -22.75
    endloop
  endfacet
  facet normal 1 0 -0
    outer loop
      vertex 10.605 0 0
      vertex 10.605 0 -22.75
      vertex 10.605 7.6 -22.75
    endloop
  endfacet
  facet normal 1 0 0
    outer loop
      vertex 10.605 7.6 0
      vertex 10.605 0 0
      vertex 10.605 7.6 -22.75
    endloop
  endfacet
  facet normal 0 0 -1
    outer loop
      vertex 10.605 7.6 -22.75
      vertex 8.605 5.6 -22.75
      vertex 6.605 7.6 -22.75
    endloop
  endfacet
  facet normal 0 0 -1
    outer loop
      vertex 8.605 5.6 -22.75
      vertex 6.605 5.6 -22.75
      vertex 6.605 7.6 -22.75
    endloop
  endfacet
  facet normal 0 -0 -1
    outer loop
      vertex 8.605 2 -22.75
      vertex 8.605 5.6 -22.75
      vertex 10.605 7.6 -22.75
    endloop
  endfacet
  facet normal -0 0 -1
    outer loop
      vertex 8.605 2 -22.75
      vertex 10.605 7.6 -22.75
      vertex 10.605 0 -22.75
    endloop
  endfacet
  facet normal 0 0 -1
    outer loop
      vertex 8.605 2 -22.75
      vertex 10.605 0 -22.75
      vertex 5.85 2 -22.75
    endloop
  endfacet
  facet normal 0 0 -1
    outer loop
      vertex 10.605 0 -22.75
      vertex 5.85 0 -22.75
      vertex 5.85 2 -22.75
    endloop
  endfacet
  facet normal -1 0 0
    outer loop
      vertex 5.85 2 -15.1667
      vertex 5.85 2 -22.75
      vertex 5.85 0 -15.1667
    endloop
  endfacet
  facet normal -1 0 0
    outer loop
      vertex 5.85 0 -15.1667
      vertex 5.85 2 -22.75
      vertex 5.85 0 -22.75
    endloop
  endfacet
  facet normal 0 0 -1
    outer loop
      vertex 5.85 2 -15.1667
      vertex 5.85 0 -15.1667
      vertex 5.3 2 -15.1667
    endloop
  endfacet
  facet normal 0 0 -1
    outer loop
      vertex 5.3 2 -15.1667
      vertex 5.85 0 -15.1667
      vertex 5.3 0 -15.1667
    endloop
  endfacet
  facet normal 1 0 0
    outer loop
      vertex 5.3 2 -22.75
      vertex 5.3 2 -15.1667
      vertex 5.3 0 -15.1667
    endloop
  endfacet
  facet normal 1 0 0
    outer loop
      vertex 5.3 0 -22.75
      vertex 5.3 2 -22.75
      vertex 5.3 0 -15.1667
    endloop
  endfacet
  facet normal 1 0 -0
    outer loop
      vertex 5.3 0 -22.75
      vertex 5.3 0 -24.75
      vertex 5.3 2 -24.75
    endloop
  endfacet
  facet normal 1 0 0
    outer loop
      vertex 5.3 2 -22.75
      vertex 5.3 0 -22.75
      vertex 5.3 2 -24.75
    endloop
  endfacet
  facet normal 0 0 1
    outer loop
      vertex 5.8 0 -24.75
      vertex 5.8 2 -24.75
      vertex 5.3 2 -24.75
    endloop
  endfacet
  facet normal 0 0 1
    outer loop
      vertex 5.3 0 -24.75
      vertex 5.8 0 -24.75
      vertex 5.3 2 -24.75
    endloop
  endfacet
  facet normal 1 0 -0
    outer loop
      vertex 5.8 0 -24.75
      vertex 5.8 0 -27.75
      vertex 5.8 2 -27.75
    endloop
  endfacet
  facet normal 1 0 0
    outer loop
      vertex 5.8 2 -24.75
      vertex 5.8 0 -24.75
      vertex 5.8 2 -27.75
    endloop
  endfacet
  facet normal -0 -0 -1
    outer loop
      vertex -2.6 2 -27.75
      vertex -2.6 3.15 -27.75
      vertex 0 2 -27.75
    endloop
  endfacet
  facet normal 0 -0 -1
    outer loop
      vertex 0 2 -27.75
      vertex -2.6 3.15 -27.75
      vertex 2.6 3.15 -27.75
    endloop
  endfacet
  facet normal -0 0 -1
    outer loop
      vertex 0 2 -27.75
      vertex 2.6 3.15 -27.75
      vertex 2.6 2 -27.75
    endloop
  endfacet
  facet normal 0 0 -1
    outer loop
      vertex 5.8 2 -27.75
      vertex 5.8 0 -27.75
      vertex 5.56401 0 -27.75
    endloop
  endfacet
  facet normal 0 0 -1.54454e-16
    outer loop
      vertex 0 2 -27.75
      vertex 2.6 2 -27.75
      vertex 5.8 2 -27.75
    endloop
  endfacet
  facet normal 0.986361 -0.116386 -0.116386
    outer loop
      vertex 5.56401 0 -27.75
      vertex 5.48574 -0.745877 -27.6675
      vertex 5.48574 0.668336 -29.0817
    endloop
  endfacet
  facet normal 0.986361 -0.116386 -0.116386
    outer loop
      vertex 5.66176 0 -26.9216
      vertex 5.48574 -0.745877 -27.6675
      vertex 5.56401 0 -27.75
    endloop
  endfacet
  facet normal 0.986361 -0.116386 -0.116386
    outer loop
      vertex 5.8 2 -27.75
      vertex 5.56401 0 -27.75
      vertex 5.48574 0.668336 -29.0817
    endloop
  endfacet
  facet normal -1.22475e-14 -0.707107 0.707107
    outer loop
      vertex -5.7209 0 -26.9216
      vertex -5.7209 -0.0892523 -27.0108
      vertex -5.10095 -1.36618 -28.2878
    endloop
  endfacet
  facet normal -1.14477e-15 -0.707107 0.707107
    outer loop
      vertex -2.32983 -3.17 -30.0916
      vertex -5.7209 0 -26.9216
      vertex -3.92823 -2.43158 -29.3532
    endloop
  endfacet
  facet normal 9.85859e-16 -0.707107 0.707107
    outer loop
      vertex -3.92823 -2.43158 -29.3532
      vertex -5.7209 0 -26.9216
      vertex -5.10095 -1.36618 -28.2878
    endloop
  endfacet
  facet normal 0 -0.707107 0.707107
    outer loop
      vertex -0.47896 -3.50143 -30.423
      vertex -5.7209 0 -26.9216
      vertex -2.32983 -3.17 -30.0916
    endloop
  endfacet
  facet normal 7.51718e-16 -0.707107 0.707107
    outer loop
      vertex 1.42382 -3.38994 -30.3115
      vertex -5.7209 0 -26.9216
      vertex -0.47896 -3.50143 -30.423
    endloop
  endfacet
  facet normal -4.55277e-16 -0.707107 0.707107
    outer loop
      vertex 3.1723 -2.84762 -29.7692
      vertex -5.7209 0 -26.9216
      vertex 1.42382 -3.38994 -30.3115
    endloop
  endfacet
  facet normal -1.93e-16 -0.707107 0.707107
    outer loop
      vertex 4.57701 -1.93323 -28.8548
      vertex -5.7209 0 -26.9216
      vertex 3.1723 -2.84762 -29.7692
    endloop
  endfacet
  facet normal -1.10162e-17 -0.707107 0.707107
    outer loop
      vertex 5.48574 -0.745877 -27.6675
      vertex -5.7209 0 -26.9216
      vertex 4.57701 -1.93323 -28.8548
    endloop
  endfacet
  facet normal 0 -0.707107 0.707107
    outer loop
      vertex 5.66176 0 -26.9216
      vertex -5.7209 0 -26.9216
      vertex 5.48574 -0.745877 -27.6675
    endloop
  endfacet
  facet normal -1 0 0
    outer loop
      vertex -5.7209 0 -27.1001
      vertex -5.7209 -0.0892523 -27.0108
      vertex -5.7209 0 -26.9216
    endloop
  endfacet
  facet normal -0.945817 -0.229597 -0.229597
    outer loop
      vertex -5.7209 -0.0892523 -27.0108
      vertex -5.7209 0 -27.1001
      vertex -5.10095 -1.36618 -28.2878
    endloop
  endfacet
  facet normal -0.945817 -0.229597 -0.229597
    outer loop
      vertex -5.10095 -1.36618 -28.2878
      vertex -5.7209 0 -27.1001
      vertex -5.56313 0 -27.75
    endloop
  endfacet
  facet normal -0.945817 -0.229597 -0.229597
    outer loop
      vertex -5.10095 -1.36618 -28.2878
      vertex -5.56313 0 -27.75
      vertex -5.7209 0.649922 -27.75
    endloop
  endfacet
  facet normal -0.945817 -0.229597 -0.229597
    outer loop
      vertex -5.10095 -1.36618 -28.2878
      vertex -5.7209 0.649922 -27.75
      vertex -5.7209 1.32496 -28.425
    endloop
  endfacet
  facet normal -0.945817 -0.229597 -0.229597
    outer loop
      vertex -5.10095 -1.36618 -28.2878
      vertex -5.7209 1.32496 -28.425
      vertex -5.10095 0.0480353 -29.702
    endloop
  endfacet
  facet normal 0 -0 -1
    outer loop
      vertex -5.8 0 -27.75
      vertex -5.8 2 -27.75
      vertex -5.7209 0.649922 -27.75
    endloop
  endfacet
  facet normal -0 0 -1
    outer loop
      vertex -5.8 0 -27.75
      vertex -5.7209 0.649922 -27.75
      vertex -5.56313 0 -27.75
    endloop
  endfacet
  facet normal 0 0 -1
    outer loop
      vertex -5.7209 0.649922 -27.75
      vertex -5.8 2 -27.75
      vertex -5.7209 2 -27.75
    endloop
  endfacet
  facet normal -1 0 0
    outer loop
      vertex -5.8 2 -24.75
      vertex -5.8 2 -27.75
      vertex -5.8 0 -24.75
    endloop
  endfacet
  facet normal -1 0 0
    outer loop
      vertex -5.8 0 -24.75
      vertex -5.8 2 -27.75
      vertex -5.8 0 -27.75
    endloop
  endfacet
  facet normal 0 -0 1
    outer loop
      vertex -5.8 2 -24.75
      vertex -5.8 0 -24.75
      vertex -5.3 0 -24.75
    endloop
  endfacet
  facet normal 0 0 1
    outer loop
      vertex -5.3 2 -24.75
      vertex -5.8 2 -24.75
      vertex -5.3 0 -24.75
    endloop
  endfacet
  facet normal -1 0 0
    outer loop
      vertex -5.3 2 -22.75
      vertex -5.3 2 -24.75
      vertex -5.3 0 -22.75
    endloop
  endfacet
  facet normal -1 0 0
    outer loop
      vertex -5.3 0 -22.75
      vertex -5.3 2 -24.75
      vertex -5.3 0 -24.75
    endloop
  endfacet
  facet normal -1 -0 -0
    outer loop
      vertex -5.3 0 -22.75
      vertex -5.3 0 -15.1667
      vertex -5.3 2 -22.75
    endloop
  endfacet
  facet normal -1 0 0
    outer loop
      vertex -5.3 2 -22.75
      vertex -5.3 0 -15.1667
      vertex -5.3 2 -15.1667
    endloop
  endfacet
  facet normal -0 -0 -1
    outer loop
      vertex -5.85 0 -15.1667
      vertex -5.85 2 -15.1667
      vertex -5.3 0 -15.1667
    endloop
  endfacet
  facet normal 0 0 -1
    outer loop
      vertex -5.3 0 -15.1667
      vertex -5.85 2 -15.1667
      vertex -5.3 2 -15.1667
    endloop
  endfacet
  facet normal 1 0 -0
    outer loop
      vertex -5.85 0 -15.1667
      vertex -5.85 0 -22.75
      vertex -5.85 2 -22.75
    endloop
  endfacet
  facet normal 1 0 0
    outer loop
      vertex -5.85 2 -15.1667
      vertex -5.85 0 -15.1667
      vertex -5.85 2 -22.75
    endloop
  endfacet
  facet normal 0 1 0
    outer loop
      vertex 8.605 2 0
      vertex 8.605 2 -22.75
      vertex 5.85 2 -15.1667
    endloop
  endfacet
  facet normal 0 1 0
    outer loop
      vertex 8.605 2 0
      vertex 5.85 2 -15.1667
      vertex -8.605 2 0
    endloop
  endfacet
  facet normal 0 1 0
    outer loop
      vertex 5.3 2 -22.75
      vertex -8.605 2 0
      vertex 5.3 2 -15.1667
    endloop
  endfacet
  facet normal -0 1 0
    outer loop
      vertex 5.85 2 -15.1667
      vertex 5.3 2 -15.1667
      vertex -8.605 2 0
    endloop
  endfacet
  facet normal 0 1 0
    outer loop
      vertex -5.85 2 -22.75
      vertex -8.605 2 0
      vertex -5.85 2 -15.1667
    endloop
  endfacet
  facet normal 0 1 -0
    outer loop
      vertex -5.3 2 -15.1667
      vertex 5.3 2 -22.75
      vertex -5.3 2 -22.75
    endloop
  endfacet
  facet normal 0 1 0
    outer loop
      vertex -8.605 2 0
      vertex 5.3 2 -22.75
      vertex -5.3 2 -15.1667
    endloop
  endfacet
  facet normal 0 1 0
    outer loop
      vertex -8.605 2 0
      vertex -5.3 2 -15.1667
      vertex -5.85 2 -15.1667
    endloop
  endfacet
  facet normal 0 1 -0
    outer loop
      vertex -8.605 2 0
      vertex -5.85 2 -22.75
      vertex -8.605 2 -22.75
    endloop
  endfacet
  facet normal 0 1 -0
    outer loop
      vertex 5.85 2 -15.1667
      vertex 8.605 2 -22.75
      vertex 5.85 2 -22.75
    endloop
  endfacet
  facet normal 1 0 -0
    outer loop
      vertex -8.605 2 0
      vertex -8.605 2 -22.75
      vertex -8.605 5.6 -22.75
    endloop
  endfacet
  facet normal 1 0 0
    outer loop
      vertex -8.605 5.6 0
      vertex -8.605 2 0
      vertex -8.605 5.6 -22.75
    endloop
  endfacet
  facet normal 0 -1 0
    outer loop
      vertex -8.605 5.6 0
      vertex -8.605 5.6 -22.75
      vertex -6.605 5.6 -22.75
    endloop
  endfacet
  facet normal 0 -1 0
    outer loop
      vertex -6.605 5.6 0
      vertex -8.605 5.6 0
      vertex -6.605 5.6 -22.75
    endloop
  endfacet
  facet normal 1 0 -0
    outer loop
      vertex -6.605 5.6 0
      vertex -6.605 5.6 -22.75
      vertex -6.605 7.6 -22.75
    endloop
  endfacet
  facet normal 1 0 0
    outer loop
      vertex -6.605 7.6 0
      vertex -6.605 5.6 0
      vertex -6.605 7.6 -22.75
    endloop
  endfacet
  facet normal -1 0 0
    outer loop
      vertex 8.605 5.6 0
      vertex 8.605 5.6 -22.75
      vertex 8.605 2 0
    endloop
  endfacet
  facet normal -1 0 0
    outer loop
      vertex 8.605 2 0
      vertex 8.605 5.6 -22.75
      vertex 8.605 2 -22.75
    endloop
  endfacet
  facet normal 0 -1 0
    outer loop
      vertex 8.605 5.6 -22.75
      vertex 8.605 5.6 0
      vertex 6.605 5.6 0
    endloop
  endfacet
  facet normal -0 -1 -0
    outer loop
      vertex 6.605 5.6 -22.75
      vertex 8.605 5.6 -22.75
      vertex 6.605 5.6 0
    endloop
  endfacet
  facet normal -1 0 0
    outer loop
      vertex 6.605 7.6 0
      vertex 6.605 7.6 -22.75
      vertex 6.605 5.6 0
    endloop
  endfacet
  facet normal -1 0 0
    outer loop
      vertex 6.605 5.6 0
      vertex 6.605 7.6 -22.75
      vertex 6.605 5.6 -22.75
    endloop
  endfacet
  facet normal 0 1 0
    outer loop
      vertex 6.605 7.6 -22.75
      vertex 6.605 7.6 0
      vertex 10.605 7.6 -22.75
    endloop
  endfacet
  facet normal 0 1 0
    outer loop
      vertex 10.605 7.6 -22.75
      vertex 6.605 7.6 0
      vertex 10.605 7.6 0
    endloop
  endfacet
  facet normal 0 1 0
    outer loop
      vertex -5.8 2 -27.75
      vertex -5.8 2 -24.75
      vertex -5.7209 2 -27.75
    endloop
  endfacet
  facet normal 0 1 0
    outer loop
      vertex -5.7209 2 -27.75
      vertex -5.8 2 -24.75
      vertex -5.3 2 -24.75
    endloop
  endfacet
  facet normal 0 1 0
    outer loop
      vertex -5.3 2 -24.75
      vertex -5.3 2 -22.75
      vertex 5.3 2 -22.75
    endloop
  endfacet
  facet normal 0 1 0
    outer loop
      vertex 2.6 2 -24.75
      vertex 5.3 2 -22.75
      vertex 5.3 2 -24.75
    endloop
  endfacet
  facet normal 0 1 0
    outer loop
      vertex -5.7209 2 -27.75
      vertex -2.6 2 -24.75
      vertex -2.6 2 -27.75
    endloop
  endfacet
  facet normal 0 1 0
    outer loop
      vertex 2.6 2 -27.75
      vertex 5.8 2 -24.75
      vertex 5.8 2 -27.75
    endloop
  endfacet
  facet normal 0 1 0
    outer loop
      vertex -2.6 2 -24.75
      vertex 5.3 2 -22.75
      vertex 2.6 2 -24.75
    endloop
  endfacet
  facet normal 0 1 0
    outer loop
      vertex -5.3 2 -24.75
      vertex 5.3 2 -22.75
      vertex -2.6 2 -24.75
    endloop
  endfacet
  facet normal 0 1 -0
    outer loop
      vertex 5.3 2 -24.75
      vertex 5.8 2 -24.75
      vertex 2.6 2 -27.75
    endloop
  endfacet
  facet normal 0 1 -0
    outer loop
      vertex 2.6 2 -24.75
      vertex 5.3 2 -24.75
      vertex 2.6 2 -27.75
    endloop
  endfacet
  facet normal 0 1 0
    outer loop
      vertex -5.7209 2 -27.75
      vertex -5.3 2 -24.75
      vertex -2.6 2 -24.75
    endloop
  endfacet
  facet normal 9.17622e-16 0.707107 -0.707107
    outer loop
      vertex -5.7209 1.32496 -28.425
      vertex -5.7209 2 -27.75
      vertex -5.10095 0.0480353 -29.702
    endloop
  endfacet
  facet normal 1.61207e-16 0.707107 -0.707107
    outer loop
      vertex -5.10095 0.0480353 -29.702
      vertex -5.7209 2 -27.75
      vertex -2.6 2 -27.75
    endloop
  endfacet
  facet normal 0 0.707107 -0.707107
    outer loop
      vertex -5.10095 0.0480353 -29.702
      vertex -2.6 2 -27.75
      vertex 0 2 -27.75
    endloop
  endfacet
  facet normal 1.54499e-16 0.707107 -0.707107
    outer loop
      vertex -5.10095 0.0480353 -29.702
      vertex 0 2 -27.75
      vertex 5.8 2 -27.75
    endloop
  endfacet
  facet normal 6.29053e-17 0.707107 -0.707107
    outer loop
      vertex -5.10095 0.0480353 -29.702
      vertex 5.8 2 -27.75
      vertex 5.48574 0.668336 -29.0817
    endloop
  endfacet
  facet normal 8.01525e-17 0.707107 -0.707107
    outer loop
      vertex -5.10095 0.0480353 -29.702
      vertex 5.48574 0.668336 -29.0817
      vertex 4.57701 -0.519021 -30.269
    endloop
  endfacet
  facet normal 1.42929e-16 0.707107 -0.707107
    outer loop
      vertex -5.10095 0.0480353 -29.702
      vertex 4.57701 -0.519021 -30.269
      vertex 3.1723 -1.4334 -31.1834
    endloop
  endfacet
  facet normal -2.84727e-16 0.707107 -0.707107
    outer loop
      vertex -5.10095 0.0480353 -29.702
      vertex 3.1723 -1.4334 -31.1834
      vertex 1.42382 -1.97572 -31.7257
    endloop
  endfacet
  facet normal 5.4751e-16 0.707107 -0.707107
    outer loop
      vertex -5.10095 0.0480353 -29.702
      vertex 1.42382 -1.97572 -31.7257
      vertex -0.47896 -2.08721 -31.8372
    endloop
  endfacet
  facet normal -1.73235e-16 0.707107 -0.707107
    outer loop
      vertex -5.10095 0.0480353 -29.702
      vertex -0.47896 -2.08721 -31.8372
      vertex -2.32983 -1.75579 -31.5058
    endloop
  endfacet
  facet normal 1.80065e-15 0.707107 -0.707107
    outer loop
      vertex -5.10095 0.0480353 -29.702
      vertex -2.32983 -1.75579 -31.5058
      vertex -3.92823 -1.01737 -30.7674
    endloop
  endfacet
  facet normal 1 0 -0
    outer loop
      vertex 2.6 2 -24.75
      vertex 2.6 2 -27.75
      vertex 2.6 3.15 -27.75
    endloop
  endfacet
  facet normal 1 0 0
    outer loop
      vertex 2.6 3.15 -24.75
      vertex 2.6 2 -24.75
      vertex 2.6 3.15 -27.75
    endloop
  endfacet
  facet normal 0 1 0
    outer loop
      vertex -2.6 3.15 -27.75
      vertex -2.6 3.15 -24.75
      vertex 2.6 3.15 -27.75
    endloop
  endfacet
  facet normal 0 1 0
    outer loop
      vertex 2.6 3.15 -27.75
      vertex -2.6 3.15 -24.75
      vertex 2.6 3.15 -24.75
    endloop
  endfacet
  facet normal -1 0 -0
    outer loop
      vertex -2.6 2 -27.75
      vertex -2.6 2 -24.75
      vertex -2.6 3.15 -24.75
    endloop
  endfacet
  facet normal -1 -0 0
    outer loop
      vertex -2.6 2 -27.75
      vertex -2.6 3.15 -24.75
      vertex -2.6 3.15 -27.75
    endloop
  endfacet
  facet normal 0.879474 -0.336546 -0.336546
    outer loop
      vertex 5.48574 -0.745877 -27.6675
      vertex 4.57701 -1.93323 -28.8548
      vertex 4.57701 -0.519021 -30.269
    endloop
  endfacet
  facet normal 0.879474 -0.336546 -0.336546
    outer loop
      vertex 5.48574 0.668336 -29.0817
      vertex 5.48574 -0.745877 -27.6675
      vertex 4.57701 -0.519021 -30.269
    endloop
  endfacet
  facet normal 0.677282 -0.520235 -0.520235
    outer loop
      vertex 4.57701 -1.93323 -28.8548
      vertex 3.1723 -2.84762 -29.7692
      vertex 3.1723 -1.4334 -31.1834
    endloop
  endfacet
  facet normal 0.677282 -0.520235 -0.520235
    outer loop
      vertex 4.57701 -0.519021 -30.269
      vertex 4.57701 -1.93323 -28.8548
      vertex 3.1723 -1.4334 -31.1834
    endloop
  endfacet
  facet normal 0.401696 -0.647549 -0.647549
    outer loop
      vertex 1.42382 -3.38994 -30.3115
      vertex 1.42382 -1.97572 -31.7257
      vertex 3.1723 -2.84762 -29.7692
    endloop
  endfacet
  facet normal 0.401696 -0.647549 -0.647549
    outer loop
      vertex 3.1723 -2.84762 -29.7692
      vertex 1.42382 -1.97572 -31.7257
      vertex 3.1723 -1.4334 -31.1834
    endloop
  endfacet
  facet normal 0.0825791 -0.704692 -0.704692
    outer loop
      vertex -0.47896 -3.50143 -30.423
      vertex -0.47896 -2.08721 -31.8372
      vertex 1.42382 -3.38994 -30.3115
    endloop
  endfacet
  facet normal 0.0825791 -0.704692 -0.704692
    outer loop
      vertex 1.42382 -3.38994 -30.3115
      vertex -0.47896 -2.08721 -31.8372
      vertex 1.42382 -1.97572 -31.7257
    endloop
  endfacet
  facet normal -0.245486 -0.685469 -0.685469
    outer loop
      vertex -2.32983 -3.17 -30.0916
      vertex -2.32983 -1.75579 -31.5058
      vertex -0.47896 -3.50143 -30.423
    endloop
  endfacet
  facet normal -0.245486 -0.685469 -0.685469
    outer loop
      vertex -0.47896 -3.50143 -30.423
      vertex -2.32983 -1.75579 -31.5058
      vertex -0.47896 -2.08721 -31.8372
    endloop
  endfacet
  facet normal -0.546948 -0.591966 -0.591966
    outer loop
      vertex -3.92823 -2.43158 -29.3532
      vertex -3.92823 -1.01737 -30.7674
      vertex -2.32983 -3.17 -30.0916
    endloop
  endfacet
  facet normal -0.546948 -0.591966 -0.591966
    outer loop
      vertex -2.32983 -3.17 -30.0916
      vertex -3.92823 -1.01737 -30.7674
      vertex -2.32983 -1.75579 -31.5058
    endloop
  endfacet
  facet normal -0.78914 -0.434314 -0.434314
    outer loop
      vertex -5.10095 -1.36618 -28.2878
      vertex -5.10095 0.0480353 -29.702
      vertex -3.92823 -2.43158 -29.3532
    endloop
  endfacet
  facet normal -0.78914 -0.434314 -0.434314
    outer loop
      vertex -3.92823 -2.43158 -29.3532
      vertex -5.10095 0.0480353 -29.702
      vertex -3.92823 -1.01737 -30.7674
    endloop
  endfacet
  facet normal -1 0 -0
    outer loop
      vertex -5.7209 1.32496 -28.425
      vertex -5.7209 0.649922 -27.75
      vertex -5.7209 2 -27.75
    endloop
  endfacet
  facet normal 0 -0 1
    outer loop
      vertex -2.6 3.15 -24.75
      vertex -2.6 2 -24.75
      vertex 2.6 2 -24.75
    endloop
  endfacet
  facet normal 0 0 1
    outer loop
      vertex 2.6 3.15 -24.75
      vertex -2.6 3.15 -24.75
      vertex 2.6 2 -24.75
    endloop
  endfacet
endsolid OpenSCAD_Model
